<?xml version="1.0" encoding="UTF-8"?>
<svg id="_레이어_2" data-name="레이어 2" xmlns="http://www.w3.org/2000/svg" viewBox="0 0 56.41 40.14">
  <defs>
    <style>
      .cls-1 {
        fill: #1b5fe9;
      }

      .cls-2 {
        fill: #434756;
      }

      .cls-3 {
        fill: none;
      }
    </style>
  </defs>
  <g id="Layer_2" data-name="Layer 2">
    <g>
      <rect class="cls-3" width="56.41" height="40.14"/>
      <g>
        <path class="cls-2" d="m21.78,25.51c-3,0-5.44-2.44-5.44-5.44s2.44-5.44,5.44-5.44,5.44,2.44,5.44,5.44-2.44,5.44-5.44,5.44Zm0-8.39c-1.63,0-2.96,1.33-2.96,2.96s1.33,2.96,2.96,2.96,2.96-1.33,2.96-2.96-1.33-2.96-2.96-2.96Z"/>
        <path class="cls-2" d="m34.63,12.66c-3,0-5.44-2.44-5.44-5.44s2.44-5.44,5.44-5.44,5.44,2.44,5.44,5.44-2.44,5.44-5.44,5.44Zm0-8.39c-1.63,0-2.96,1.33-2.96,2.96s1.33,2.96,2.96,2.96,2.96-1.33,2.96-2.96-1.33-2.96-2.96-2.96Z"/>
        <rect class="cls-1" x="25.72" y="12.41" width="4.97" height="2.48" transform="translate(-1.39 23.94) rotate(-45)"/>
        <path class="cls-2" d="m34.63,38.35c-3,0-5.44-2.44-5.44-5.44s2.44-5.44,5.44-5.44,5.44,2.44,5.44,5.44-2.44,5.44-5.44,5.44Zm0-8.39c-1.63,0-2.96,1.33-2.96,2.96s1.33,2.96,2.96,2.96,2.96-1.33,2.96-2.96-1.33-2.96-2.96-2.96Z"/>
        <rect class="cls-1" x="26.97" y="24.01" width="2.48" height="4.97" transform="translate(-10.47 27.71) rotate(-45)"/>
      </g>
    </g>
  </g>
</svg>