<?xml version="1.0" encoding="UTF-8"?>
<svg id="_레이어_2" data-name="레이어 2" xmlns="http://www.w3.org/2000/svg" viewBox="0 0 56.41 40.14">
  <defs>
    <style>
      .cls-1 {
        fill: #1b5fe9;
      }

      .cls-2 {
        fill: #434756;
      }

      .cls-3 {
        fill: none;
      }
    </style>
  </defs>
  <g id="Layer_2" data-name="Layer 2">
    <g>
      <rect class="cls-3" width="56.41" height="40.14"/>
      <g>
        <path class="cls-2" d="m24.22,28.18c-3.1,0-6.2-1.18-8.55-3.54-4.72-4.72-4.72-12.39,0-17.11,4.72-4.72,12.39-4.72,17.11,0,4.72,4.72,4.72,12.39,0,17.11-2.36,2.36-5.46,3.54-8.55,3.54Zm0-21.72c-2.47,0-4.93.94-6.81,2.82-3.75,3.76-3.75,9.86,0,13.62,3.76,3.75,9.86,3.75,13.62,0,3.75-3.76,3.75-9.86,0-13.62-1.88-1.88-4.34-2.82-6.81-2.82Z"/>
        <rect class="cls-2" x="36.42" y="21.39" width="2.47" height="16.26" transform="translate(-9.85 35.27) rotate(-45)"/>
        <rect class="cls-1" x="22.99" y="10.52" width="2.47" height="11.14"/>
        <rect class="cls-1" x="18.65" y="14.86" width="11.14" height="2.47"/>
      </g>
    </g>
  </g>
</svg>